<svg width="25" height="25" viewBox="0 0 25 25" fill="none" xmlns="http://www.w3.org/2000/svg">
<path fill-rule="evenodd" clip-rule="evenodd" d="M12.0573 13.229C7.98241 13.229 4.61152 16.2879 4.11915 20.231C4.05072 20.779 4.505 21.229 5.05728 21.229V21.229C5.60957 21.229 6.04855 20.7779 6.13991 20.2332C6.61566 17.3972 9.08821 15.229 12.0573 15.229C15.0263 15.229 17.4989 17.3972 17.9746 20.2332C18.066 20.7779 18.505 21.229 19.0573 21.229V21.229C19.6096 21.229 20.0638 20.779 19.9954 20.231C19.503 16.2879 16.1321 13.229 12.0573 13.229Z" fill="#34AADD"/>
<path d="M12.0574 11.229C14.2634 11.229 16.0574 9.435 16.0574 7.229C16.0574 5.023 14.2634 3.229 12.0574 3.229C9.85137 3.229 8.05737 5.023 8.05737 7.229C8.05737 9.435 9.85137 11.229 12.0574 11.229" stroke="#34AADD" stroke-width="2"/>
</svg>
